<svg data-v-0dd9719b="" version="1.0" xmlns="http://www.w3.org/2000/svg" xmlns:xlink="http://www.w3.org/1999/xlink" width="100%" height="100%" viewBox="0 0 340.000000 250.000000" preserveAspectRatio="xMidYMid meet" color-interpolation-filters="sRGB" style="margin: auto;"> <rect data-v-0dd9719b="" x="0" y="0" width="100%" height="100%" fill="#fff" fill-opacity="1" class="background"></rect> <rect data-v-0dd9719b="" x="0" y="0" width="100%" height="100%" fill="url(#watermark)" fill-opacity="1" class="watermarklayer"></rect> <g data-v-0dd9719b="" fill="#009fe8" class="icon-text-wrapper icon-svg-group iconsvg" transform="translate(71.40975952148438,91.77711486816406)"><g class="iconsvg-imagesvg" transform="translate(0,3.2198848724365234)"><g><rect fill="#009fe8" fill-opacity="0" stroke-width="2" x="0" y="0" width="60" height="60.006000600060005" class="image-rect"></rect> <svg x="0" y="0" width="60" height="60.006000600060005" filtersec="colorsb3856200431" class="image-svg-svg primary" style="overflow: visible;"><svg version="1.1" id="图层_1" xmlns="http://www.w3.org/2000/svg" xmlns:xlink="http://www.w3.org/1999/xlink" x="0px" y="0px" viewBox="0.9100017547607422 0.39000001549720764 98.08999633789062 98.10000610351562" enable-background="new 0 0 100 99" xml:space="preserve">
<path fill="#133FA0" d="M76.55,0.39h-53.2c-12.39,0-22.44,10.05-22.44,22.45v53.2c0,12.4,10.04,22.45,22.44,22.45h53.2
	C88.96,98.48,99,88.43,99,76.04v-53.2C99,10.44,88.96,0.39,76.55,0.39z M95.2,43.3l-15.43,40.7c-3.59,9.49-14.19,14.27-23.68,10.67
	l-40.7-15.42C5.9,75.66,1.12,65.05,4.72,55.57l15.43-40.7C23.73,5.38,34.34,0.6,43.82,4.2l40.7,15.42
	C94.02,23.21,98.79,33.82,95.2,43.3z"></path>
<path fill="#009FE8" d="M81.24,66.41c0,7.9-6.41,14.32-14.32,14.32H32.99c-7.92,0-14.32-6.42-14.32-14.32V32.47
	c0-7.91,6.4-14.32,14.32-14.32h33.93c7.91,0,14.32,6.41,14.32,14.32V66.41z"></path>
</svg></svg> <!----></g></g> <g transform="translate(67,0)"><g data-gra="path-name" fill-rule="" class="tp-name iconsvg-namesvg"><g transform="scale(1)"><g><path d="M11.77-18.28L16.74-1.1 10.41-0.28 9.65-3.17 6.74-3.17 6.1-0.28-0.41-0.92 4.67-17.92 11.77-18.28ZM7.27-7.07L9.19-7.07 8.22-11.51 7.27-7.07ZM31.47-10.13L31.47-10.13Q31.47-8.35 31.01-6.91 30.55-5.48 29.73-4.36 28.91-3.24 27.77-2.44 26.64-1.63 25.28-1.12 23.93-0.6 22.4-0.35 20.88-0.1 19.27-0.1L19.27-0.1Q18.67-0.1 18.1-0.13 17.52-0.17 16.92-0.23L16.92-0.23 17.28-17.36Q18.68-17.8 20.17-17.99 21.66-18.17 23.13-18.17L23.13-18.17Q24.95-18.17 26.48-17.63 28.01-17.08 29.12-16.04 30.23-15.01 30.85-13.52 31.47-12.02 31.47-10.13ZM26.24-9.14L26.24-9.32Q26.25-10.01 26.09-10.64 25.93-11.28 25.57-11.77 25.21-12.26 24.64-12.56 24.08-12.86 23.3-12.89L23.3-12.89 22.79-4.98Q23.56-5.09 24.19-5.48 24.81-5.87 25.26-6.44 25.72-7.01 25.97-7.7 26.21-8.4 26.24-9.14L26.24-9.14ZM46.7-10.13L46.7-10.13Q46.7-8.35 46.24-6.91 45.78-5.48 44.96-4.36 44.13-3.24 43-2.44 41.86-1.63 40.51-1.12 39.16-0.6 37.63-0.35 36.11-0.1 34.5-0.1L34.5-0.1Q33.9-0.1 33.32-0.13 32.75-0.17 32.15-0.23L32.15-0.23 32.51-17.36Q33.91-17.8 35.4-17.99 36.88-18.17 38.35-18.17L38.35-18.17Q40.18-18.17 41.71-17.63 43.24-17.08 44.35-16.04 45.46-15.01 46.08-13.52 46.7-12.02 46.7-10.13ZM41.47-9.14L41.47-9.32Q41.48-10.01 41.32-10.64 41.16-11.28 40.8-11.77 40.43-12.26 39.87-12.56 39.31-12.86 38.53-12.89L38.53-12.89 38.02-4.98Q38.79-5.09 39.41-5.48 40.04-5.87 40.49-6.44 40.94-7.01 41.19-7.7 41.44-8.4 41.47-9.14L41.47-9.14ZM60.33-18.61L67.2-18.61 66.02 0.13 60.2 0.38 60.25-9.5 57.62-1.53 55.38-1.53 53.36-8.65 53.33-0.38 47.44-0.2 47.69-17.84 54.25-18.1 56.86-9.65 60.33-18.61ZM83.74-9.01L83.74-9.01Q83.74-7.85 83.47-6.77 83.2-5.69 82.7-4.75 82.19-3.8 81.47-3.02 80.75-2.23 79.85-1.67 78.95-1.11 77.89-0.8 76.83-0.48 75.64-0.48L75.64-0.48Q74.5-0.48 73.46-0.78 72.42-1.07 71.51-1.6 70.6-2.13 69.87-2.88 69.14-3.62 68.62-4.54 68.1-5.45 67.81-6.5 67.53-7.54 67.53-8.68L67.53-8.68Q67.53-9.79 67.8-10.85 68.06-11.92 68.57-12.86 69.07-13.81 69.79-14.6 70.5-15.39 71.39-15.97 72.27-16.54 73.31-16.86 74.34-17.18 75.49-17.18L75.49-17.18Q77.34-17.18 78.87-16.6 80.39-16.03 81.47-14.96 82.55-13.9 83.14-12.39 83.74-10.87 83.74-9.01ZM78.07-8.68L78.07-8.68Q78.07-9.23 77.91-9.74 77.75-10.26 77.44-10.66 77.14-11.07 76.68-11.31 76.23-11.56 75.64-11.56L75.64-11.56Q75.04-11.56 74.57-11.35 74.1-11.13 73.76-10.75 73.42-10.38 73.24-9.87 73.07-9.37 73.07-8.81L73.07-8.81Q73.07-8.27 73.22-7.73 73.37-7.2 73.68-6.76 73.98-6.33 74.44-6.06 74.89-5.79 75.49-5.79L75.49-5.79Q76.09-5.79 76.57-6.03 77.05-6.27 77.38-6.67 77.71-7.07 77.89-7.59 78.07-8.12 78.07-8.68ZM84.03-18.23L97.94-18.25 97.81-12.84 94.01-12.69 93.04-0.59 87.65-0.31 87.68-12.41 83.88-12.2 84.03-18.23ZM113.92-9.01L113.92-9.01Q113.92-7.85 113.65-6.77 113.38-5.69 112.88-4.75 112.37-3.8 111.65-3.02 110.93-2.23 110.03-1.67 109.13-1.11 108.07-0.8 107.01-0.48 105.83-0.48L105.83-0.48Q104.68-0.48 103.64-0.78 102.6-1.07 101.69-1.6 100.79-2.13 100.05-2.88 99.32-3.62 98.8-4.54 98.28-5.45 98-6.5 97.71-7.54 97.71-8.68L97.71-8.68Q97.71-9.79 97.98-10.85 98.25-11.92 98.75-12.86 99.25-13.81 99.97-14.6 100.68-15.39 101.57-15.97 102.46-16.54 103.49-16.86 104.53-17.18 105.67-17.18L105.67-17.18Q107.53-17.18 109.05-16.6 110.58-16.03 111.65-14.96 112.73-13.9 113.33-12.39 113.92-10.87 113.92-9.01ZM108.25-8.68L108.25-8.68Q108.25-9.23 108.09-9.74 107.93-10.26 107.63-10.66 107.32-11.07 106.87-11.31 106.41-11.56 105.83-11.56L105.83-11.56Q105.23-11.56 104.76-11.35 104.28-11.13 103.95-10.75 103.61-10.38 103.43-9.87 103.25-9.37 103.25-8.81L103.25-8.81Q103.25-8.27 103.4-7.73 103.56-7.2 103.86-6.76 104.17-6.33 104.62-6.06 105.07-5.79 105.67-5.79L105.67-5.79Q106.27-5.79 106.75-6.03 107.23-6.27 107.56-6.67 107.9-7.07 108.07-7.59 108.25-8.12 108.25-8.68ZM129.77-12.3L129.77-12.3Q129.77-11.31 129.6-10.5 129.43-9.69 129.06-9.01 128.69-8.33 128.1-7.76 127.51-7.19 126.68-6.66L126.68-6.66 129.72-1.25 123.98-0.13 122.01-5.56 120.43-5.51 120.2-0.2 114.71-0.2Q114.77-3.11 114.83-6 114.89-8.88 114.97-11.79L114.97-11.79Q114.99-13.26 115.02-14.7 115.04-16.14 115.12-17.61L115.12-17.61Q116.01-17.94 116.88-18.16 117.75-18.38 118.62-18.5 119.5-18.62 120.4-18.67 121.3-18.71 122.24-18.71L122.24-18.71Q123.7-18.71 125.05-18.31 126.41-17.91 127.46-17.1 128.51-16.3 129.14-15.1 129.77-13.9 129.77-12.3ZM124.05-11.89L124.05-11.89Q124.05-12.43 123.91-12.88 123.76-13.32 123.47-13.65 123.18-13.98 122.76-14.16 122.33-14.35 121.76-14.35L121.76-14.35Q121.5-14.35 121.26-14.31 121.02-14.28 120.79-14.22L120.79-14.22 120.58-9.47 120.89-9.47Q121.44-9.47 122-9.61 122.57-9.75 123.03-10.04 123.48-10.34 123.77-10.8 124.05-11.26 124.05-11.89Z" transform="translate(0.4099999964237213, 18.709999084472656)"></path></g> <!----> <!----> <!----> <!----> <!----> <!----> <g data-gra="path-name-1" fill="#009fe8" transform="translate(0,22.09000015258789)"><g transform="scale(1.01292)"><path d="M0.53-42.19L32.74-42.25 32.44-29.72 23.64-29.37 21.39-1.36 8.92-0.71 8.98-28.72 0.18-28.25 0.53-42.19ZM35.1-42.6L62.34-42.6Q62.16-39.83 62.02-37.11 61.87-34.39 61.63-31.61L61.63-31.61 49.1-30.96 48.81-27.24 57.61-27.24 56.96-18.08 48.1-17.79 47.8-13.47 55.13-13.47 60.33-13.47Q60.15-10.22 59.96-7.02 59.77-3.81 59.62-0.59L59.62-0.59 34.15 0 35.1-42.6ZM91.77-41.54L91.77-41.54 90.11-29.07Q89.26-29.31 88.4-29.4 87.54-29.49 86.69-29.49L86.69-29.49Q84.5-29.49 82.52-28.91 80.54-28.33 79.02-27.15 77.5-25.97 76.6-24.2 75.7-22.43 75.7-20.03L75.7-20.03Q75.7-18.5 76.18-17.37 76.67-16.25 77.56-15.51 78.44-14.77 79.65-14.42 80.87-14.06 82.31-14.06L82.31-14.06Q83.41-14.06 84.59-14.3 85.77-14.54 86.92-14.92 88.07-15.3 89.17-15.81 90.26-16.31 91.18-16.84L91.18-16.84 90-2.95Q88.84-2.36 87.5-1.91 86.15-1.45 84.74-1.11 83.32-0.77 81.9-0.59 80.48-0.41 79.18-0.41L79.18-0.41Q75.43-0.41 72.18-1.8 68.93-3.19 66.54-5.61 64.14-8.04 62.77-11.33 61.4-14.63 61.4-18.44L61.4-18.44Q61.4-23.49 62.84-27.96 64.29-32.44 67.1-35.81 69.9-39.18 74.06-41.13 78.21-43.08 83.61-43.08L83.61-43.08Q85.65-43.08 87.79-42.75 89.94-42.43 91.77-41.54ZM127.75-42.13L128.7 0 113.93 0.71 113.81-12.94 107.01-12.94 106.6 0 93.36 0 94.49-41.54 108.55-40.89 107.66-19.68 114.22-19.68 114.28-42.49 127.75-42.13Z" transform="translate(-0.18000000715255737, 43.08000183105469)"></path></g></g></g></g> <!----></g></g><defs v-gra="od"></defs></svg>